<?xml version="1.0" encoding="iso-8859-1"?>
<!-- Generator: Adobe Illustrator 16.0.0, SVG Export Plug-In . SVG Version: 6.00 Build 0)  -->
<!DOCTYPE svg PUBLIC "-//W3C//DTD SVG 1.1//EN" "http://www.w3.org/Graphics/SVG/1.1/DTD/svg11.dtd">
<svg version="1.1" id="Capa_1" xmlns="http://www.w3.org/2000/svg" xmlns:xlink="http://www.w3.org/1999/xlink" x="0px" y="0px"
	 width="123.733px" height="123.733px" viewBox="0 0 123.733 123.733" style="enable-background:new 0 0 123.733 123.733;"
	 xml:space="preserve">
<g>
	<g>
		<circle cx="61.85" cy="13.666" r="13.666"/>
		<path d="M47.862,52.929v7.156h27.975V52.76c0.766,2.056,1.475,4.477,2.137,7.325h10.674c-4.17-16.661-12.631-27.773-23.393-31.96
			l-3.405,3.428l-3.301-3.465c-0.012,0.002-0.022,0.002-0.034,0.006c-12.934,4.214-19.87,15.62-23.536,31.992h10.8
			C46.426,57.313,47.118,54.945,47.862,52.929z M61.818,32.06h0.064l3.296,22.029l-3.296,4.51h-0.064l-3.295-4.51L61.818,32.06z"/>
		<path d="M14.278,63.201v13.184H29.39v47.349h64.953V76.385h15.113V63.201H14.278z M68.792,77.068
			c5.003,1.941,8.986,5.925,10.927,10.926c0.282,0.725-0.117,1.08-0.851,0.818c-2.178-0.78-4.75-1.381-7.506-1.799
			c-0.771-0.115-1.472-0.818-1.588-1.588c-0.417-2.758-1.019-5.328-1.8-7.507C67.715,77.188,68.068,76.787,68.792,77.068z
			 M56.137,85.195c0.526-3.203,1.29-5.911,2.168-7.928c0.311-0.713,1.238-1.368,2.013-1.432c0.512-0.039,1.028-0.062,1.551-0.062
			c0.521,0,1.039,0.021,1.549,0.062c0.775,0.063,1.703,0.719,2.015,1.432c0.877,2.017,1.642,4.725,2.168,7.928
			c0.125,0.768-0.418,1.335-1.193,1.281c-1.506-0.104-3.027-0.156-4.538-0.156s-3.033,0.052-4.539,0.156
			C56.554,86.53,56.011,85.963,56.137,85.195z M44.013,87.995c1.942-5.002,5.926-8.983,10.926-10.927
			c0.726-0.281,1.081,0.119,0.818,0.852c-0.78,2.178-1.381,4.749-1.798,7.508c-0.116,0.769-0.818,1.472-1.588,1.586
			c-2.756,0.418-5.328,1.02-7.506,1.801C44.133,89.074,43.732,88.721,44.013,87.995z M42.783,96.471
			c-0.041-0.511-0.062-1.027-0.062-1.552c0-0.52,0.021-1.036,0.062-1.549c0.063-0.774,0.717-1.703,1.43-2.014
			c2.017-0.878,4.725-1.642,7.928-2.168c0.767-0.125,1.335,0.419,1.281,1.192c-0.103,1.508-0.157,3.029-0.157,4.537
			c0,1.512,0.054,3.033,0.157,4.538c0.054,0.776-0.514,1.321-1.281,1.194c-3.204-0.526-5.911-1.289-7.928-2.168
			C43.5,98.174,42.845,97.246,42.783,96.471z M54.938,112.775c-5-1.941-8.984-5.924-10.926-10.926
			c-0.281-0.727,0.12-1.08,0.852-0.818c2.179,0.779,4.75,1.382,7.507,1.799c0.77,0.115,1.472,0.818,1.587,1.588
			c0.417,2.758,1.019,5.328,1.798,7.508C56.019,112.656,55.665,113.057,54.938,112.775z M67.596,104.648
			c-0.524,3.203-1.289,5.91-2.168,7.928c-0.311,0.713-1.237,1.367-2.014,1.43c-0.511,0.041-1.027,0.063-1.549,0.063
			c-0.522,0-1.039-0.021-1.55-0.063c-0.775-0.062-1.702-0.717-2.013-1.43c-0.877-2.018-1.642-4.725-2.168-7.928
			c-0.126-0.768,0.418-1.335,1.193-1.281c1.507,0.104,3.027,0.158,4.537,0.158c1.511,0,3.033-0.055,4.539-0.158
			C67.18,103.313,67.723,103.881,67.596,104.648z M66.656,101.235c-1.529,0.114-3.131,0.178-4.79,0.178s-3.259-0.063-4.789-0.178
			c-0.776-0.058-1.465-0.749-1.524-1.522c-0.115-1.531-0.177-3.133-0.177-4.791c0-1.66,0.063-3.26,0.177-4.791
			c0.059-0.773,0.748-1.464,1.524-1.521c1.53-0.114,3.131-0.18,4.789-0.18c1.661,0,3.26,0.064,4.79,0.18
			c0.776,0.059,1.467,0.748,1.522,1.521c0.117,1.531,0.179,3.131,0.179,4.791c0,1.659-0.062,3.26-0.179,4.791
			C68.123,100.486,67.432,101.178,66.656,101.235z M79.721,101.85c-1.942,5-5.926,8.982-10.928,10.926
			c-0.725,0.281-1.08-0.119-0.818-0.852c0.781-2.179,1.383-4.75,1.8-7.507c0.116-0.771,0.817-1.473,1.588-1.588
			c2.758-0.416,5.329-1.019,7.508-1.799C79.602,100.77,80.001,101.124,79.721,101.85z M80.952,96.473
			c-0.062,0.773-0.718,1.703-1.432,2.014c-2.018,0.879-4.725,1.641-7.928,2.168c-0.767,0.127-1.334-0.418-1.281-1.193
			c0.104-1.506,0.158-3.027,0.158-4.537c0-1.512-0.055-3.033-0.158-4.539c-0.053-0.774,0.516-1.319,1.281-1.193
			c3.203,0.525,5.91,1.289,7.928,2.169c0.713,0.309,1.367,1.237,1.432,2.012c0.04,0.513,0.062,1.029,0.062,1.552
			C81.014,95.445,80.994,95.961,80.952,96.473z"/>
	</g>
</g>
<g>
</g>
<g>
</g>
<g>
</g>
<g>
</g>
<g>
</g>
<g>
</g>
<g>
</g>
<g>
</g>
<g>
</g>
<g>
</g>
<g>
</g>
<g>
</g>
<g>
</g>
<g>
</g>
<g>
</g>
</svg>
