<?xml version="1.0" standalone="no"?>
<!DOCTYPE svg PUBLIC "-//W3C//DTD SVG 20010904//EN"
 "http://www.w3.org/TR/2001/REC-SVG-20010904/DTD/svg10.dtd">
<svg version="1.0" xmlns="http://www.w3.org/2000/svg"
 width="1280.000000pt" height="1210.000000pt" viewBox="0 0 1280.000000 1210.000000"
 preserveAspectRatio="xMidYMid meet">
<metadata>
Created by potrace 1.15, written by Peter Selinger 2001-2017
</metadata>
<g transform="translate(0.000000,1210.000000) scale(0.100000,-0.100000)"
fill="#000000" stroke="none">
<path d="M3044 12086 c-157 -30 -268 -74 -386 -152 -351 -234 -519 -665 -418
-1073 81 -327 333 -599 657 -710 651 -221 1341 300 1310 989 -20 448 -317 816
-747 927 -118 31 -309 39 -416 19z"/>
<path d="M10020 12071 c-298 -65 -541 -249 -682 -518 -167 -316 -148 -710 48
-1005 312 -470 929 -593 1404 -279 154 102 304 293 369 471 48 133 55 179 56
355 0 147 -3 180 -23 249 -104 360 -363 619 -717 716 -115 32 -337 37 -455 11z"/>
<path d="M6300 10270 c0 -506 -1 -920 -3 -920 -2 0 -30 -5 -62 -11 -75 -14
-144 -49 -202 -102 -25 -23 -188 -210 -362 -415 l-316 -373 -22 68 c-12 37
-47 154 -78 258 -91 309 -186 482 -368 671 -211 220 -463 353 -765 405 -114
19 -154 20 -958 16 -764 -3 -846 -5 -914 -21 -166 -40 -359 -131 -505 -238
-112 -83 -292 -270 -368 -384 -110 -166 -110 -164 -317 -924 -16 -58 -79 -287
-140 -510 -61 -223 -124 -452 -140 -510 -16 -58 -65 -235 -108 -395 -44 -159
-82 -298 -84 -308 -3 -16 22 -17 436 -17 241 0 440 1 442 3 2 1 66 232 143
512 77 281 174 636 216 790 43 154 98 357 124 450 l46 170 108 3 c80 2 107 0
107 -10 0 -11 -69 -269 -270 -1008 -95 -349 -242 -894 -244 -902 0 -4 698 -9
1552 -10 853 -2 1552 1 1552 5 0 7 -41 151 -250 867 -38 129 -114 390 -169
580 -55 190 -107 368 -115 395 -28 89 -31 86 96 83 l113 -3 37 -115 c20 -63
60 -189 88 -280 200 -641 215 -678 305 -777 171 -189 413 -171 603 46 105 119
1110 1338 1136 1378 83 125 87 298 9 413 l-23 35 280 3 280 2 0 1000 0 1000
-445 0 -445 0 0 -920z"/>
<path d="M8871 9879 c-201 -18 -345 -73 -471 -182 -107 -91 -2078 -2465 -2120
-2552 -42 -87 -57 -186 -42 -267 36 -194 202 -354 402 -388 141 -24 268 20
382 130 36 36 466 538 954 1115 905 1071 954 1128 963 1133 3 1 5 -569 3
-1268 l-2 -1270 -4470 0 -4470 0 0 -570 0 -570 4470 0 4470 0 2 -2337 3 -2338
23 -75 c34 -109 85 -199 150 -264 68 -67 83 -78 159 -115 90 -44 148 -56 263
-56 128 0 212 25 312 91 108 72 165 150 215 290 l28 79 3 2363 2 2362 115 0
115 0 2 -2337 c3 -2198 4 -2342 21 -2398 64 -219 211 -369 412 -420 32 -8 101
-15 152 -15 263 0 468 159 550 426 17 56 18 176 20 2402 l3 2342 655 0 655 0
0 570 0 570 -287 0 -288 0 3 1397 c3 1486 1 1561 -43 1678 -100 267 -366 441
-724 475 -129 12 -2452 11 -2590 -1z"/>
</g>
</svg>
